<svg width="20" height="20" viewBox="0 0 20 20" fill="none" xmlns="http://www.w3.org/2000/svg">
<path d="M0 10C0 4.47715 4.47715 0 10 0C15.5228 0 20 4.47715 20 10C20 15.5228 15.5228 20 10 20C4.47715 20 0 15.5228 0 10Z" fill="#FFB81F"/>
<path d="M10.9219 5.83331L10.7604 11.7744H9.24402L9.0783 5.83331H10.9219ZM10.0022 14.4259C9.72875 14.4259 9.49398 14.3292 9.29788 14.1359C9.10178 13.9398 9.00511 13.705 9.00787 13.4316C9.00511 13.1609 9.10178 12.9289 9.29788 12.7355C9.49398 12.5422 9.72875 12.4455 10.0022 12.4455C10.2646 12.4455 10.4952 12.5422 10.6941 12.7355C10.8929 12.9289 10.9937 13.1609 10.9965 13.4316C10.9937 13.6139 10.9454 13.781 10.8515 13.9329C10.7604 14.082 10.6402 14.2022 10.4911 14.2933C10.3419 14.3817 10.179 14.4259 10.0022 14.4259Z" fill="black"/>
</svg>
