{
  "accessors": [
    {
      "bufferView": 2,
      "componentType": 5126,
      "count": 58578,
      "max": [
        83.34662628173828,
        29.51637077331543,
        190.20120239257813
      ],
      "min": [
        -74.75895690917969,
        -14.24685001373291,
        17.576250076293945
      ],
      "type": "VEC3"
    },
    {
      "bufferView": 2,
      "byteOffset": 702936,
      "componentType": 5126,
      "count": 58578,
      "max": [
        1.0,
        1.0,
        1.0
      ],
      "min": [
        -1.0,
        -1.0,
        -1.0
      ],
      "type": "VEC3"
    },
    {
      "bufferView": 3,
      "componentType": 5126,
      "count": 58578,
      "max": [
        1.0,
        1.0,
        1.0,
        1.0
      ],
      "min": [
        -1.0,
        -1.0,
        -1.0,
        -1.0
      ],
      "type": "VEC4"
    },
    {
      "bufferView": 1,
      "componentType": 5126,
      "count": 58578,
      "max": [
        2.5070700645446777,
        2.2648370265960693
      ],
      "min": [
        -2.5070700645446777,
        -2.2812719345092773
      ],
      "type": "VEC2"
    },
    {
      "bufferView": 0,
      "componentType": 5125,
      "count": 120666,
      "type": "SCALAR"
    },
    {
      "bufferView": 2,
      "byteOffset": 1405872,
      "componentType": 5126,
      "count": 3368,
      "max": [
        73.59066009521484,
        29.51637077331543,
        190.20120239257813
      ],
      "min": [
        -64.97770690917969,
        -14.24685001373291,
        28.576250076293945
      ],
      "type": "VEC3"
    },
    {
      "bufferView": 2,
      "byteOffset": 1446288,
      "componentType": 5126,
      "count": 3368,
      "max": [
        0.06001539155840874,
        1.0,
        1.0
      ],
      "min": [
        -0.06001539155840874,
        -1.0,
        -1.0
      ],
      "type": "VEC3"
    },
    {
      "bufferView": 3,
      "byteOffset": 937248,
      "componentType": 5126,
      "count": 3368,
      "max": [
        1.0,
        0.06001567840576172,
        0.001168961520306766,
        1.0
      ],
      "min": [
        -1.0,
        -0.04212324693799019,
        -0.0006933960248716176,
        -1.0
      ],
      "type": "VEC4"
    },
    {
      "bufferView": 1,
      "byteOffset": 468624,
      "componentType": 5126,
      "count": 3368,
      "max": [
        2.1966490745544434,
        1.8356159925460815
      ],
      "min": [
        -2.1966490745544434,
        -0.6016224026679993
      ],
      "type": "VEC2"
    },
    {
      "bufferView": 0,
      "byteOffset": 482664,
      "componentType": 5125,
      "count": 5784,
      "type": "SCALAR"
    },
    {
      "bufferView": 2,
      "byteOffset": 1486704,
      "componentType": 5126,
      "count": 16339,
      "max": [
        92.24146270751953,
        36.85042190551758,
        183.125
      ],
      "min": [
        -81.72728729248047,
        -15.337080001831055,
        0.0
      ],
      "type": "VEC3"
    },
    {
      "bufferView": 2,
      "byteOffset": 1682772,
      "componentType": 5126,
      "count": 16339,
      "max": [
        1.0,
        1.0,
        1.0
      ],
      "min": [
        -1.0,
        -1.0,
        -1.0
      ],
      "type": "VEC3"
    },
    {
      "bufferView": 3,
      "byteOffset": 991136,
      "componentType": 5126,
      "count": 16339,
      "max": [
        1.0,
        1.0,
        1.0,
        1.0
      ],
      "min": [
        -1.0,
        -1.0,
        -1.0,
        -1.0
      ],
      "type": "VEC4"
    },
    {
      "bufferView": 1,
      "byteOffset": 495568,
      "componentType": 5126,
      "count": 16339,
      "max": [
        7.656435012817383,
        12.912610054016113
      ],
      "min": [
        -5.046925067901611,
        -11.69182014465332
      ],
      "type": "VEC2"
    },
    {
      "bufferView": 0,
      "byteOffset": 505800,
      "componentType": 5125,
      "count": 44988,
      "type": "SCALAR"
    },
    {
      "bufferView": 2,
      "byteOffset": 1878840,
      "componentType": 5126,
      "count": 296,
      "max": [
        92.24146270751953,
        36.85042190551758,
        183.125
      ],
      "min": [
        -81.72728729248047,
        -15.337080001831055,
        0.0
      ],
      "type": "VEC3"
    },
    {
      "bufferView": 2,
      "byteOffset": 1882392,
      "componentType": 5126,
      "count": 296,
      "max": [
        1.0,
        -0.0,
        1.0
      ],
      "min": [
        -1.0,
        -0.0,
        -1.0
      ],
      "type": "VEC3"
    },
    {
      "bufferView": 0,
      "byteOffset": 685752,
      "componentType": 5125,
      "count": 816,
      "type": "SCALAR"
    },
    {
      "bufferView": 2,
      "byteOffset": 1885944,
      "componentType": 5126,
      "count": 19,
      "max": [
        85.44428253173828,
        35.60042190551758,
        158.62130737304688
      ],
      "min": [
        -286.0296936035156,
        -13.337080001831055,
        11.75
      ],
      "type": "VEC3"
    },
    {
      "bufferView": 0,
      "byteOffset": 689016,
      "componentType": 5125,
      "count": 22,
      "type": "SCALAR"
    },
    {
      "bufferView": 2,
      "byteOffset": 1886172,
      "componentType": 5126,
      "count": 40,
      "max": [
        90.46021270751953,
        34.85042190551758,
        155.0
      ],
      "min": [
        -79.94603729248047,
        -13.337080001831055,
        7.875
      ],
      "type": "VEC3"
    },
    {
      "bufferView": 0,
      "byteOffset": 689104,
      "componentType": 5125,
      "count": 40,
      "type": "SCALAR"
    }
  ],
  "asset": {
    "extras": {
      "author": "jimbogies (https://sketchfab.com/jimbogies)",
      "license": "CC-BY-4.0 (http://creativecommons.org/licenses/by/4.0/)",
      "source": "https://sketchfab.com/3d-models/rusty-metal-warehouse-shelving-ccc250d7e54e4e4399ca3a8c2b477020",
      "title": "Rusty Metal Warehouse Shelving"
    },
    "generator": "Sketchfab-12.66.0",
    "version": "2.0"
  },
  "bufferViews": [
    {
      "buffer": 0,
      "byteLength": 689264,
      "name": "floatBufferViews",
      "target": 34963
    },
    {
      "buffer": 0,
      "byteLength": 626280,
      "byteOffset": 689264,
      "byteStride": 8,
      "name": "floatBufferViews",
      "target": 34962
    },
    {
      "buffer": 0,
      "byteLength": 1886652,
      "byteOffset": 1315544,
      "byteStride": 12,
      "name": "floatBufferViews",
      "target": 34962
    },
    {
      "buffer": 0,
      "byteLength": 1252560,
      "byteOffset": 3202196,
      "byteStride": 16,
      "name": "floatBufferViews",
      "target": 34962
    }
  ],
  "buffers": [
    {
      "byteLength": 4454756,
      "uri": "scene.bin"
    }
  ],
  "images": [
    {
      "uri": "textures/cardboard_baseColor.jpeg"
    },
    {
      "uri": "textures/cardboard_metallicRoughness.png"
    },
    {
      "uri": "textures/cardboard_normal.png"
    },
    {
      "uri": "textures/tape_baseColor.jpeg"
    },
    {
      "uri": "textures/metal_baseColor.jpeg"
    },
    {
      "uri": "textures/metal_metallicRoughness.png"
    },
    {
      "uri": "textures/metal_normal.png"
    }
  ],
  "materials": [
    {
      "name": "cardboard",
      "normalTexture": {
        "index": 2
      },
      "pbrMetallicRoughness": {
        "baseColorTexture": {
          "index": 0
        },
        "metallicFactor": 0.0,
        "metallicRoughnessTexture": {
          "index": 1
        }
      }
    },
    {
      "name": "tape",
      "normalTexture": {
        "index": 2
      },
      "pbrMetallicRoughness": {
        "baseColorTexture": {
          "index": 3
        },
        "metallicFactor": 0.0,
        "roughnessFactor": 0.11723333880548918
      }
    },
    {
      "name": "metal",
      "normalTexture": {
        "index": 6
      },
      "pbrMetallicRoughness": {
        "baseColorTexture": {
          "index": 4
        },
        "metallicRoughnessTexture": {
          "index": 5
        }
      }
    },
    {
      "name": "material",
      "pbrMetallicRoughness": {
        "metallicFactor": 0.0,
        "roughnessFactor": 0.6
      }
    },
    {
      "name": "edge_color000255",
      "pbrMetallicRoughness": {
        "metallicFactor": 0.0,
        "roughnessFactor": 0.6
      }
    },
    {
      "name": "edge_color19921133255",
      "pbrMetallicRoughness": {
        "metallicFactor": 0.0,
        "roughnessFactor": 0.6
      }
    }
  ],
  "meshes": [
    {
      "name": "Material2",
      "primitives": [
        {
          "attributes": {
            "NORMAL": 1,
            "POSITION": 0,
            "TANGENT": 2,
            "TEXCOORD_0": 3
          },
          "indices": 4,
          "material": 0,
          "mode": 4
        }
      ]
    },
    {
      "name": "Material2",
      "primitives": [
        {
          "attributes": {
            "NORMAL": 6,
            "POSITION": 5,
            "TANGENT": 7,
            "TEXCOORD_0": 8
          },
          "indices": 9,
          "material": 1,
          "mode": 4
        }
      ]
    },
    {
      "name": "Material2",
      "primitives": [
        {
          "attributes": {
            "NORMAL": 11,
            "POSITION": 10,
            "TANGENT": 12,
            "TEXCOORD_0": 13
          },
          "indices": 14,
          "material": 2,
          "mode": 4
        }
      ]
    },
    {
      "name": "Material3",
      "primitives": [
        {
          "attributes": {
            "NORMAL": 16,
            "POSITION": 15
          },
          "indices": 17,
          "material": 3,
          "mode": 4
        }
      ]
    },
    {
      "name": "Material2",
      "primitives": [
        {
          "attributes": {
            "POSITION": 18
          },
          "indices": 19,
          "material": 4,
          "mode": 1
        }
      ]
    },
    {
      "name": "Material2",
      "primitives": [
        {
          "attributes": {
            "POSITION": 20
          },
          "indices": 21,
          "material": 5,
          "mode": 1
        }
      ]
    }
  ],
  "nodes": [
    {
      "children": [
        1
      ],
      "matrix": [
        1.0,
        0.0,
        0.0,
        0.0,
        0.0,
        2.220446049250313e-16,
        -1.0,
        0.0,
        0.0,
        1.0,
        2.220446049250313e-16,
        0.0,
        0.0,
        0.0,
        0.0,
        1.0
      ],
      "name": "Sketchfab_model"
    },
    {
      "children": [
        2,
        3,
        4,
        5,
        6,
        7,
        8
      ],
      "name": "Collada visual scene group"
    },
    {
      "mesh": 0,
      "name": "Material2"
    },
    {
      "mesh": 1,
      "name": "Material2"
    },
    {
      "mesh": 2,
      "name": "Material2"
    },
    {
      "mesh": 3,
      "name": "Material3"
    },
    {
      "mesh": 4,
      "name": "Material2"
    },
    {
      "mesh": 5,
      "name": "Material2"
    },
    {
      "children": [
        9
      ],
      "name": "SketchUp"
    },
    {
      "children": [
        10
      ],
      "matrix": [
        0.8771818,
        -0.4801584,
        1.387779e-17,
        0.0,
        0.09771875,
        0.1785184,
        0.9790722,
        0.0,
        -0.4701098,
        -0.8588243,
        0.2035135,
        0.0,
        -184.9972,
        -296.7841,
        173.0578,
        1.0
      ],
      "name": "skp_camera_Last_Saved_SketchUp_View"
    },
    {
      "name": "ID1"
    }
  ],
  "samplers": [
    {
      "magFilter": 9729,
      "minFilter": 9987,
      "wrapS": 10497,
      "wrapT": 10497
    }
  ],
  "scene": 0,
  "scenes": [
    {
      "name": "Sketchfab_Scene",
      "nodes": [
        0
      ]
    }
  ],
  "textures": [
    {
      "sampler": 0,
      "source": 0
    },
    {
      "sampler": 0,
      "source": 1
    },
    {
      "sampler": 0,
      "source": 2
    },
    {
      "sampler": 0,
      "source": 3
    },
    {
      "sampler": 0,
      "source": 4
    },
    {
      "sampler": 0,
      "source": 5
    },
    {
      "sampler": 0,
      "source": 6
    }
  ]
}
